<svg width="213" height="192" viewBox="0 0 213 192" fill="none" xmlns="http://www.w3.org/2000/svg">
<path d="M106.5 124C98.2617 124 90.3608 121.05 84.5355 115.799C78.7101 110.548 75.4375 103.426 75.4375 96C75.4375 88.574 78.7101 81.452 84.5355 76.201C90.3608 70.95 98.2617 68 106.5 68C114.738 68 122.639 70.95 128.465 76.201C134.29 81.452 137.562 88.574 137.562 96C137.562 103.426 134.29 110.548 128.465 115.799C122.639 121.05 114.738 124 106.5 124ZM172.441 103.76C172.796 101.2 173.062 98.64 173.062 96C173.062 93.36 172.796 90.72 172.441 88L191.168 74.96C192.854 73.76 193.297 71.6 192.232 69.84L174.483 42.16C173.418 40.4 171.021 39.68 169.069 40.4L146.97 48.4C142.355 45.28 137.562 42.56 131.971 40.56L128.688 19.36C128.507 18.4178 127.963 17.5634 127.15 16.9484C126.338 16.3334 125.311 15.9974 124.25 16H88.75C86.5312 16 84.6675 17.44 84.3125 19.36L81.0287 40.56C75.4375 42.56 70.645 45.28 66.03 48.4L43.9312 40.4C41.9788 39.68 39.5825 40.4 38.5175 42.16L20.7675 69.84C19.6138 71.6 20.1463 73.76 21.8325 74.96L40.5588 88C40.2038 90.72 39.9375 93.36 39.9375 96C39.9375 98.64 40.2038 101.2 40.5588 103.76L21.8325 117.04C20.1463 118.24 19.6138 120.4 20.7675 122.16L38.5175 149.84C39.5825 151.6 41.9788 152.24 43.9312 151.6L66.03 143.52C70.645 146.72 75.4375 149.44 81.0287 151.44L84.3125 172.64C84.6675 174.56 86.5312 176 88.75 176H124.25C126.469 176 128.332 174.56 128.688 172.64L131.971 151.44C137.562 149.36 142.355 146.72 146.97 143.52L169.069 151.6C171.021 152.24 173.418 151.6 174.483 149.84L192.232 122.16C193.297 120.4 192.854 118.24 191.168 117.04L172.441 103.76Z" fill="#F8F8F8"/>
<ellipse cx="106.5" cy="145" rx="48.5" ry="39" fill="#168D02"/>
<g clip-path="url(#clip0_111_77)">
<path d="M106.515 122.215C90.4371 122.215 77.4046 110.482 77.4046 96.0079C77.4046 81.5338 90.4371 69.801 106.515 69.801C122.592 69.801 135.625 81.5338 135.625 96.0079C135.625 110.482 122.592 122.215 106.515 122.215ZM106.515 116.973C112.691 116.973 118.614 114.765 122.982 110.833C127.349 106.901 129.803 101.568 129.803 96.0079C129.803 90.4475 127.349 85.1148 122.982 81.183C118.614 77.2512 112.691 75.0423 106.515 75.0423C100.338 75.0423 94.4148 77.2512 90.0475 81.183C85.6801 85.1148 83.2266 90.4475 83.2266 96.0079C83.2266 101.568 85.6801 106.901 90.0475 110.833C94.4148 114.765 100.338 116.973 106.515 116.973ZM96.3261 101.249H112.337C112.723 101.249 113.093 101.111 113.366 100.865C113.639 100.62 113.792 100.286 113.792 99.9389C113.792 99.5914 113.639 99.2581 113.366 99.0123C113.093 98.7666 112.723 98.6286 112.337 98.6286H100.693C98.7624 98.6286 96.9114 97.9383 95.5466 96.7096C94.1818 95.4809 93.4151 93.8145 93.4151 92.0768C93.4151 90.3392 94.1818 88.6727 95.5466 87.4441C96.9114 86.2154 98.7624 85.5251 100.693 85.5251H103.604V80.2837H109.426V85.5251H116.703V90.7665H100.693C100.307 90.7665 99.9363 90.9045 99.6634 91.1503C99.3904 91.396 99.2371 91.7293 99.2371 92.0768C99.2371 92.4244 99.3904 92.7576 99.6634 93.0034C99.9363 93.2491 100.307 93.3872 100.693 93.3872H112.337C114.267 93.3872 116.118 94.0774 117.483 95.3061C118.847 96.5348 119.614 98.2013 119.614 99.9389C119.614 101.677 118.847 103.343 117.483 104.572C116.118 105.8 114.267 106.491 112.337 106.491H109.426V111.732H103.604V106.491H96.3261V101.249Z" fill="#F5F5F5"/>
</g>
<defs>
<clipPath id="clip0_111_77">
<rect width="69.864" height="62.8966" fill="white" transform="translate(71.568 64.5517)"/>
</clipPath>
</defs>
</svg>
